<?xml version="1.0" encoding="utf-8"?>
<!-- Generator: Adobe Illustrator 22.0.0, SVG Export Plug-In . SVG Version: 6.00 Build 0)  -->
<svg version="1.1" id="Layer_1" xmlns="http://www.w3.org/2000/svg" xmlns:xlink="http://www.w3.org/1999/xlink" x="0px" y="0px"
	 viewBox="0 0 1000 1000" style="enable-background:new 0 0 1000 1000;" xml:space="preserve">
<style type="text/css">
	.st0{opacity:8.000000e-02;}
	.st1{fill:#FFFFFF;}
	.st2{fill:#4444FF;}
</style>
<g>
	<g class="st0">
		<path class="st1" d="M780.1,498.3L504.1,986.2c-12.1,21.4-44.7,12.8-44.7-11.8V663.1c0-13.2-10.7-23.9-23.9-23.9H307.2
			c-18.3,0-29.8-19.7-20.8-35.6l275.9-487.9c12.1-21.4,44.7-12.8,44.7,11.8v311.3c0,13.2,10.7,23.9,23.9,23.9h128.4
			C777.6,462.6,789.1,482.3,780.1,498.3z"/>
	</g>
	<g>
		<path class="st2" d="M714.6,396.4L438.7,884.3c-12.1,21.4-44.7,12.8-44.7-11.8V561.3c0-13.2-10.7-23.9-23.9-23.9H241.7
			c-18.3,0-29.8-19.7-20.8-35.6L496.9,13.8C508.9-7.5,541.5,1,541.5,25.6v311.3c0,13.2,10.7,23.9,23.9,23.9h128.4
			C712.1,360.8,723.6,380.5,714.6,396.4z"/>
	</g>
</g>
</svg>
